# xmcd CD database file
#
# Track frame offsets:
#	150
#	25915
#	59421
#	90227
#	116908
#	138406
#
# Disc length: 2498 seconds
#
# Revision: 0
# Processed by: cddbd v1.5.2PL0 Copyright (c) Steve Scherf et al.
# Submitted via: CDex 1.70beta2
#
DISCID=4b09c006
DTITLE=Sonny Fortune - Serengeti Minstrel
DYEAR=1977
DGENRE=Jazz
TTITLE0=Bacchanal
TTITLE1=The Afro-Americans
TTITLE2=There's Nothing Smart About Being Stupid
TTITLE3=Not All Dreams Are Real
TTITLE4=Never Again Is Such A Long Time
TTITLE5=Serengeti Minstrel
EXTD=YEAR: 1977
EXTT0=
EXTT1=
EXTT2=
EXTT3=
EXTT4=
EXTT5=
PLAYORDER=
